<?xml version="1.0" encoding="iso-8859-1"?>
<svg xmlns="http://www.w3.org/2000/svg" height="512pt" version="1.1" viewBox="0 0 512 512" width="512pt">
<g id="surface1">
<path d="M 512 256 C 512 397.386719 397.386719 512 256 512 C 114.613281 512 0 397.386719 0 256 C 0 114.613281 114.613281 0 256 0 C 397.386719 0 512 114.613281 512 256 Z M 512 256 " style=" stroke:none;fill-rule:nonzero;fill:rgb(28.235294%,45.490196%,80%);fill-opacity:1;" />
<path d="M 492.265625 22.527344 L 150.847656 22.527344 C 61.90625 62.648438 0 152.09375 0 256 C 0 355.734375 57.039062 442.140625 140.269531 484.398438 L 492.265625 484.398438 C 503.117188 484.398438 512 475.515625 512 464.660156 L 512 42.261719 C 512 31.410156 503.117188 22.527344 492.265625 22.527344 Z M 492.265625 22.527344 " style=" stroke:none;fill-rule:nonzero;fill:rgb(80%,90.196078%,92.941176%);fill-opacity:1;" />
<path d="M 90.941406 60.324219 C 35.328125 107.285156 0 177.515625 0 256 C 0 334.484375 35.328125 404.710938 90.941406 451.667969 Z M 90.941406 60.324219 " style=" stroke:none;fill-rule:nonzero;fill:rgb(65.098039%,83.921569%,92.156863%);fill-opacity:1;" />
<path d="M 492.265625 22.527344 L 150.847656 22.527344 C 116.554688 37.996094 86.285156 60.800781 62.027344 88.9375 L 512 88.9375 L 512 42.261719 C 512 31.410156 503.117188 22.527344 492.265625 22.527344 Z M 492.265625 22.527344 " style=" stroke:none;fill-rule:nonzero;fill:rgb(27.843137%,28.627451%,47.45098%);fill-opacity:1;" />
<path d="M 90.941406 60.335938 C 80.566406 69.09375 70.894531 78.65625 62.027344 88.9375 L 90.941406 88.9375 Z M 90.941406 60.335938 " style=" stroke:none;fill-rule:nonzero;fill:rgb(21.960784%,23.529412%,41.960784%);fill-opacity:1;" />
<path d="M 111.273438 64.683594 C 106.300781 64.683594 102.320312 60.609375 102.320312 55.730469 C 102.320312 50.148438 107.492188 45.816406 113.027344 46.960938 C 117.089844 47.71875 120.222656 51.394531 120.222656 55.730469 C 120.222656 60.65625 116.234375 64.683594 111.273438 64.683594 Z M 111.273438 64.683594 " style=" stroke:none;fill-rule:nonzero;fill:rgb(39.215686%,40.392157%,61.176471%);fill-opacity:1;" />
<path d="M 143.210938 64.683594 C 138.171875 64.683594 134.261719 60.554688 134.261719 55.730469 C 134.261719 50.09375 139.460938 45.824219 144.964844 46.960938 C 149.011719 47.730469 152.164062 51.367188 152.164062 55.730469 C 152.164062 60.609375 148.1875 64.683594 143.210938 64.683594 Z M 143.210938 64.683594 " style=" stroke:none;fill-rule:nonzero;fill:rgb(39.215686%,40.392157%,61.176471%);fill-opacity:1;" />
<path d="M 471.414062 64.683594 L 426.148438 64.683594 C 421.203125 64.683594 417.195312 60.675781 417.195312 55.730469 C 417.195312 50.789062 421.203125 46.78125 426.148438 46.78125 L 471.414062 46.78125 C 476.359375 46.78125 480.367188 50.789062 480.367188 55.730469 C 480.367188 60.675781 476.359375 64.683594 471.414062 64.683594 Z M 471.414062 64.683594 " style=" stroke:none;fill-rule:nonzero;fill:rgb(48.627451%,50.588235%,72.54902%);fill-opacity:1;" />
<path d="M 448.78125 55.730469 C 448.78125 50.789062 452.789062 46.78125 457.730469 46.78125 L 426.148438 46.78125 C 421.203125 46.78125 417.195312 50.789062 417.195312 55.730469 C 417.195312 60.675781 421.203125 64.683594 426.148438 64.683594 L 457.730469 64.683594 C 452.789062 64.683594 448.78125 60.675781 448.78125 55.730469 Z M 448.78125 55.730469 " style=" stroke:none;fill-rule:nonzero;fill:rgb(39.215686%,40.392157%,61.176471%);fill-opacity:1;" />
<path d="M 140.875 303.726562 L 69.214844 303.726562 C 64.058594 303.726562 59.878906 299.546875 59.878906 294.390625 L 59.878906 222.730469 C 59.878906 217.574219 64.058594 213.398438 69.214844 213.398438 L 140.875 213.398438 C 146.03125 213.398438 150.210938 217.578125 150.210938 222.730469 L 150.210938 294.390625 C 150.210938 299.546875 146.03125 303.726562 140.875 303.726562 Z M 140.875 303.726562 " style=" stroke:none;fill-rule:nonzero;fill:rgb(39.215686%,40.392157%,61.176471%);fill-opacity:1;" />
<path d="M 68.957031 430.765625 L 140.875 430.765625 C 146.03125 430.765625 150.210938 426.589844 150.210938 421.433594 L 150.210938 349.773438 C 150.210938 344.617188 146.03125 340.4375 140.875 340.4375 L 69.214844 340.4375 C 64.058594 340.4375 59.878906 344.617188 59.878906 349.773438 L 59.878906 420.527344 C 62.816406 424.023438 65.84375 427.4375 68.957031 430.765625 Z M 68.957031 430.765625 " style=" stroke:none;fill-rule:nonzero;fill:rgb(39.215686%,40.392157%,61.176471%);fill-opacity:1;" />
<path d="M 90.941406 294.390625 L 90.941406 222.730469 C 90.941406 217.574219 95.117188 213.394531 100.273438 213.394531 L 69.214844 213.394531 C 64.058594 213.394531 59.878906 217.574219 59.878906 222.730469 L 59.878906 294.390625 C 59.878906 299.546875 64.058594 303.726562 69.214844 303.726562 L 100.273438 303.726562 C 95.117188 303.726562 90.941406 299.546875 90.941406 294.390625 Z M 90.941406 294.390625 " style=" stroke:none;fill-rule:nonzero;fill:rgb(27.843137%,28.627451%,47.45098%);fill-opacity:1;" />
<path d="M 90.941406 421.433594 L 90.941406 349.773438 C 90.941406 344.617188 95.117188 340.4375 100.273438 340.4375 L 69.214844 340.4375 C 64.058594 340.4375 59.878906 344.617188 59.878906 349.773438 L 59.878906 420.527344 C 62.816406 424.023438 65.84375 427.433594 68.957031 430.765625 L 100.273438 430.765625 C 95.117188 430.765625 90.941406 426.585938 90.941406 421.433594 Z M 90.941406 421.433594 " style=" stroke:none;fill-rule:nonzero;fill:rgb(27.843137%,28.627451%,47.45098%);fill-opacity:1;" />
<path d="M 472.042969 123.023438 L 39.375 123.023438 C 37.320312 123.023438 35.652344 124.6875 35.652344 126.742188 L 35.652344 170.621094 C 35.652344 172.679688 37.320312 174.34375 39.375 174.34375 L 472.042969 174.34375 C 474.097656 174.34375 475.765625 172.679688 475.765625 170.621094 L 475.765625 126.742188 C 475.765625 124.6875 474.097656 123.023438 472.042969 123.023438 Z M 472.042969 123.023438 " style=" stroke:none;fill-rule:nonzero;fill:rgb(65.098039%,83.921569%,92.156863%);fill-opacity:1;" />
<path d="M 90.941406 170.621094 L 90.941406 126.742188 C 90.941406 124.6875 92.605469 123.023438 94.660156 123.023438 L 39.375 123.023438 C 37.320312 123.023438 35.652344 124.6875 35.652344 126.742188 L 35.652344 170.621094 C 35.652344 172.679688 37.320312 174.34375 39.375 174.34375 L 94.660156 174.34375 C 92.605469 174.34375 90.941406 172.679688 90.941406 170.621094 Z M 90.941406 170.621094 " style=" stroke:none;fill-rule:nonzero;fill:rgb(35.686275%,70.980392%,90.588235%);fill-opacity:1;" />
<path d="M 256.886719 234.492188 L 201.585938 234.492188 C 196.640625 234.492188 192.632812 230.484375 192.632812 225.539062 C 192.632812 220.59375 196.640625 216.589844 201.585938 216.589844 L 256.886719 216.589844 C 261.828125 216.589844 265.835938 220.597656 265.835938 225.539062 C 265.835938 230.484375 261.828125 234.492188 256.886719 234.492188 Z M 256.886719 234.492188 " style=" stroke:none;fill-rule:nonzero;fill:rgb(35.686275%,70.980392%,90.588235%);fill-opacity:1;" />
<path d="M 312.183594 267.511719 L 201.585938 267.511719 C 196.640625 267.511719 192.632812 263.507812 192.632812 258.5625 C 192.632812 253.617188 196.640625 249.609375 201.585938 249.609375 L 312.183594 249.609375 C 317.128906 249.609375 321.136719 253.617188 321.136719 258.5625 C 321.136719 263.507812 317.128906 267.511719 312.183594 267.511719 Z M 312.183594 267.511719 " style=" stroke:none;fill-rule:nonzero;fill:rgb(65.098039%,83.921569%,92.156863%);fill-opacity:1;" />
<path d="M 312.183594 300.535156 L 201.585938 300.535156 C 196.640625 300.535156 192.632812 296.527344 192.632812 291.582031 C 192.632812 286.636719 196.640625 282.628906 201.585938 282.628906 L 312.183594 282.628906 C 317.128906 282.628906 321.136719 286.636719 321.136719 291.582031 C 321.136719 296.527344 317.128906 300.535156 312.183594 300.535156 Z M 312.183594 300.535156 " style=" stroke:none;fill-rule:nonzero;fill:rgb(65.098039%,83.921569%,92.156863%);fill-opacity:1;" />
<path d="M 256.886719 361.53125 L 201.585938 361.53125 C 196.640625 361.53125 192.632812 357.523438 192.632812 352.578125 C 192.632812 347.636719 196.640625 343.628906 201.585938 343.628906 L 256.886719 343.628906 C 261.828125 343.628906 265.835938 347.636719 265.835938 352.578125 C 265.835938 357.523438 261.828125 361.53125 256.886719 361.53125 Z M 256.886719 361.53125 " style=" stroke:none;fill-rule:nonzero;fill:rgb(35.686275%,70.980392%,90.588235%);fill-opacity:1;" />
<path d="M 226.632812 225.539062 C 226.632812 220.597656 230.640625 216.589844 235.585938 216.589844 L 201.585938 216.589844 C 196.640625 216.589844 192.632812 220.597656 192.632812 225.539062 C 192.632812 230.484375 196.640625 234.492188 201.585938 234.492188 L 235.585938 234.492188 C 230.640625 234.492188 226.632812 230.484375 226.632812 225.539062 Z M 226.632812 225.539062 " style=" stroke:none;fill-rule:nonzero;fill:rgb(27.843137%,58.823529%,80.392157%);fill-opacity:1;" />
<path d="M 226.632812 352.578125 C 226.632812 347.636719 230.640625 343.628906 235.585938 343.628906 L 201.585938 343.628906 C 196.640625 343.628906 192.632812 347.636719 192.632812 352.578125 C 192.632812 357.523438 196.640625 361.53125 201.585938 361.53125 L 235.585938 361.53125 C 230.640625 361.53125 226.632812 357.523438 226.632812 352.578125 Z M 226.632812 352.578125 " style=" stroke:none;fill-rule:nonzero;fill:rgb(27.843137%,58.823529%,80.392157%);fill-opacity:1;" />
<path d="M 312.183594 394.554688 L 201.585938 394.554688 C 196.640625 394.554688 192.632812 390.546875 192.632812 385.601562 C 192.632812 380.65625 196.640625 376.648438 201.585938 376.648438 L 312.183594 376.648438 C 317.128906 376.648438 321.136719 380.65625 321.136719 385.601562 C 321.136719 390.546875 317.128906 394.554688 312.183594 394.554688 Z M 312.183594 394.554688 " style=" stroke:none;fill-rule:nonzero;fill:rgb(65.098039%,83.921569%,92.156863%);fill-opacity:1;" />
<path d="M 312.183594 427.574219 L 201.585938 427.574219 C 196.640625 427.574219 192.632812 423.566406 192.632812 418.625 C 192.632812 413.679688 196.640625 409.671875 201.585938 409.671875 L 312.183594 409.671875 C 317.128906 409.671875 321.136719 413.679688 321.136719 418.625 C 321.136719 423.570312 317.128906 427.574219 312.183594 427.574219 Z M 312.183594 427.574219 " style=" stroke:none;fill-rule:nonzero;fill:rgb(65.098039%,83.921569%,92.156863%);fill-opacity:1;" />
<path d="M 444.28125 246.722656 L 435.515625 211.597656 C 435.144531 210.105469 433.609375 209.214844 432.128906 209.636719 L 397.175781 219.523438 C 396.390625 219.75 395.722656 220.269531 395.3125 220.976562 L 364.863281 273.71875 C 363.777344 275.601562 364.421875 278.003906 366.300781 279.089844 L 408.03125 303.183594 C 409.96875 304.300781 412.445312 303.636719 413.5625 301.699219 L 443.953125 249.0625 C 444.363281 248.355469 444.480469 247.515625 444.28125 246.722656 Z M 444.28125 246.722656 " style=" stroke:none;fill-rule:nonzero;fill:rgb(100%,80.392157%,21.960784%);fill-opacity:1;" />
<path d="M 415.707031 240.644531 C 416.113281 239.9375 416.78125 239.414062 417.566406 239.191406 L 440.765625 232.628906 L 435.515625 211.597656 C 435.144531 210.105469 433.609375 209.214844 432.128906 209.636719 L 397.175781 219.523438 C 396.390625 219.75 395.722656 220.269531 395.3125 220.976562 L 364.863281 273.71875 C 363.777344 275.601562 364.421875 278.003906 366.300781 279.089844 L 386.707031 290.871094 Z M 415.707031 240.644531 " style=" stroke:none;fill-rule:nonzero;fill:rgb(100%,67.45098%,0%);fill-opacity:1;" />
<path d="M 472.042969 123.023438 L 425.855469 123.023438 L 425.855469 174.34375 L 472.042969 174.34375 C 474.097656 174.34375 475.765625 172.675781 475.765625 170.621094 L 475.765625 126.742188 C 475.765625 124.6875 474.097656 123.023438 472.042969 123.023438 Z M 472.042969 123.023438 " style=" stroke:none;fill-rule:nonzero;fill:rgb(35.686275%,70.980392%,90.588235%);fill-opacity:1;" />
<path d="M 450.808594 148.683594 C 450.808594 135.609375 460.589844 124.828125 473.230469 123.234375 C 472.855469 123.105469 472.460938 123.023438 472.042969 123.023438 L 425.855469 123.023438 L 425.855469 174.34375 L 472.042969 174.34375 C 472.460938 174.34375 472.855469 174.261719 473.230469 174.132812 C 460.589844 172.539062 450.808594 161.757812 450.808594 148.683594 Z M 450.808594 148.683594 " style=" stroke:none;fill-rule:nonzero;fill:rgb(27.843137%,58.823529%,80.392157%);fill-opacity:1;" />
<path d="M 111.238281 157.636719 L 75.199219 157.636719 C 70.253906 157.636719 66.246094 153.628906 66.246094 148.683594 C 66.246094 143.738281 70.253906 139.730469 75.199219 139.730469 L 111.238281 139.730469 C 116.179688 139.730469 120.1875 143.738281 120.1875 148.683594 C 120.1875 153.628906 116.179688 157.636719 111.238281 157.636719 Z M 111.238281 157.636719 " style=" stroke:none;fill-rule:nonzero;fill:rgb(80%,90.196078%,92.941176%);fill-opacity:1;" />
<path d="M 415.796875 250.65625 C 410.855469 250.65625 406.839844 246.648438 406.839844 241.703125 C 406.839844 236.761719 410.84375 232.753906 415.785156 232.753906 L 415.796875 232.753906 C 420.742188 232.753906 424.75 236.761719 424.75 241.703125 C 424.75 246.648438 420.742188 250.65625 415.796875 250.65625 Z M 415.796875 250.65625 " style=" stroke:none;fill-rule:nonzero;fill:rgb(100%,52.156863%,0%);fill-opacity:1;" />
<path d="M 90.941406 213.394531 L 90.941406 243.882812 C 90.941406 248.300781 94.519531 251.878906 98.9375 251.878906 L 111.152344 251.878906 C 115.570312 251.878906 119.152344 248.300781 119.152344 243.882812 L 119.152344 213.394531 Z M 90.941406 213.394531 " style=" stroke:none;fill-rule:nonzero;fill:rgb(27.843137%,28.627451%,47.45098%);fill-opacity:1;" />
<path d="M 90.941406 340.4375 L 90.941406 370.925781 C 90.941406 375.339844 94.519531 378.921875 98.9375 378.921875 L 111.152344 378.921875 C 115.570312 378.921875 119.152344 375.339844 119.152344 370.925781 L 119.152344 340.4375 Z M 90.941406 340.4375 " style=" stroke:none;fill-rule:nonzero;fill:rgb(27.843137%,28.627451%,47.45098%);fill-opacity:1;" />
<path d="M 105.046875 243.882812 L 105.046875 213.394531 L 90.941406 213.394531 L 90.941406 243.882812 C 90.941406 248.300781 94.519531 251.878906 98.9375 251.878906 L 111.152344 251.878906 C 111.472656 251.878906 111.789062 251.855469 112.097656 251.820312 C 108.128906 251.351562 105.046875 247.980469 105.046875 243.882812 Z M 105.046875 243.882812 " style=" stroke:none;fill-rule:nonzero;fill:rgb(21.960784%,23.529412%,41.960784%);fill-opacity:1;" />
<path d="M 105.046875 370.925781 L 105.046875 340.4375 L 90.941406 340.4375 L 90.941406 370.925781 C 90.941406 375.339844 94.519531 378.921875 98.9375 378.921875 L 111.152344 378.921875 C 111.472656 378.921875 111.789062 378.898438 112.097656 378.859375 C 108.128906 378.390625 105.046875 375.019531 105.046875 370.925781 Z M 105.046875 370.925781 " style=" stroke:none;fill-rule:nonzero;fill:rgb(21.960784%,23.529412%,41.960784%);fill-opacity:1;" />
<path d="M 444.28125 373.761719 L 435.515625 338.636719 C 435.144531 337.144531 433.609375 336.257812 432.128906 336.675781 L 397.175781 346.5625 C 396.390625 346.789062 395.722656 347.308594 395.3125 348.019531 L 364.863281 400.757812 C 363.777344 402.640625 364.421875 405.046875 366.300781 406.132812 L 408.03125 430.222656 C 409.96875 431.339844 412.445312 430.679688 413.5625 428.742188 L 443.953125 376.101562 C 444.363281 375.394531 444.480469 374.554688 444.28125 373.761719 Z M 444.28125 373.761719 " style=" stroke:none;fill-rule:nonzero;fill:rgb(100%,80.392157%,21.960784%);fill-opacity:1;" />
<path d="M 415.707031 367.683594 C 416.113281 366.976562 416.78125 366.457031 417.566406 366.230469 L 440.765625 359.667969 L 435.515625 338.636719 C 435.144531 337.144531 433.609375 336.257812 432.128906 336.675781 L 397.175781 346.5625 C 396.390625 346.789062 395.722656 347.3125 395.3125 348.019531 L 364.863281 400.757812 C 363.777344 402.640625 364.421875 405.046875 366.300781 406.132812 L 386.707031 417.910156 Z M 415.707031 367.683594 " style=" stroke:none;fill-rule:nonzero;fill:rgb(100%,67.45098%,0%);fill-opacity:1;" />
<path d="M 415.796875 377.695312 C 410.855469 377.695312 406.839844 373.6875 406.839844 368.742188 C 406.839844 363.800781 410.84375 359.792969 415.785156 359.792969 L 415.796875 359.792969 C 420.742188 359.792969 424.75 363.800781 424.75 368.742188 C 424.75 373.6875 420.742188 377.695312 415.796875 377.695312 Z M 415.796875 377.695312 " style=" stroke:none;fill-rule:nonzero;fill:rgb(100%,52.156863%,0%);fill-opacity:1;" />
</g>
</svg>